<svg xmlns="http://www.w3.org/2000/svg" id="svg2" version="1.1" xml:space="preserve" width="206.52362" height="44" viewBox="0 0 206.52362 44">
   <g id="g10" transform="matrix(1.25,0,0,-1.25,-3.7533875e-4,43.999875)">
      <path d="m 137.55816,21.780647 5.03035,0 0,3.344818 -5.03035,0 0,-3.344818 z m -55.369723,3.344818 0,-20.1165547 5.028275,0 0,10.0586227 3.369677,0 0,-6.7138044 1.684838,-3.3448183 11.744843,0 0,10.0586227 2.51276,0 0,-10.0586227 5.02965,0 0,10.0586227 2.51414,0 0,-10.0586227 5.02758,0 0,10.0586227 2.5169,0 0,3.344128 -2.5169,0 0,3.368986 -5.02758,0 0,-3.368986 -2.51414,0 0,3.368986 -5.02965,0 0,-3.368986 -7.568657,0 0,-10.0579324 -3.344128,0 0,10.0579324 -8.399333,0 0,3.368986 8.399333,0 0,3.344818 -13.427608,0 z m -13.40206,-20.1165547 5.028966,0 0,20.1165547 -5.028966,0 0,-20.1165547 z M 57.041535,25.125465 50.329112,5.0089103 l 5.028275,0 2.514829,6.6896367 3.368986,0 0,-6.6896367 5.029656,0 0,20.1165547 -9.229323,0 z m 4.199667,-3.344818 0,-6.713114 -2.538996,0 2.538996,6.713114 z m 76.316958,-16.7717367 5.03035,0 0,13.4027507 -5.03035,0.02417 0,-13.4269177 z m 7.54379,13.4027507 0,-13.4027507 5.03104,0 0,10.0586227 2.51414,0 0,-10.0586227 5.02689,0 0,10.0586227 2.51552,0 0,-10.0586227 5.02966,0 0,10.0586227 -1.6586,3.344128 -18.45865,0 z m -21.80208,0 -1.68277,-3.344128 0,-6.7138044 1.68277,-3.3448183 11.74484,0 0,13.4027507 -11.74484,0 z m 3.34482,-3.344128 3.36899,0 0,-6.7144949 -3.36899,0 0,6.7144949 z m -51.145199,-3.344818 5.028966,0 0,3.371057 -5.028966,0 0,-3.371057 z" style="fill:#fff;fill-opacity:1;fill-rule:nonzero;stroke:none" id="logo-a"></path>
      <g id="g14" transform="matrix(0.69050748,0,0,0.69050748,20.145856,35.1999)">
         <path d="m 0,0 -29.175,-29.112 7.296,-7.283 7.326,7.258 7.264,-7.289 -7.311,-7.316 7.311,-7.235 7.146,7.254 7.445,-7.254 7.249,7.254 -7.249,7.25 7.327,7.336 7.25,-7.258 7.265,7.258 L 0,0 Z M -7.25,-21.839 0,-14.582 7.248,-21.839 0,-29.095 l -7.25,7.256 z" style="fill:#fff;fill-opacity:1;fill-rule:nonzero;stroke:none" id="path16"></path>
      </g>
   </g>
</svg>